<?xml version="1.0" encoding="UTF-8"?>
<!-- Generated by jsxcad -->
<!DOCTYPE svg PUBLIC "-//W3C//DTD SVG 1.1 Tiny//EN" "http://www.w3.org/Graphics/SVG/1.1/DTD/svg11-tiny.dtd">
<svg baseProfile="tiny" height="20.21818mm" width="17.65625mm" viewBox="-0.00000 2.73425 17.65625 20.21818" version="1.1" stroke="black" stroke-width=".1" fill="none" xmlns="http://www.w3.org/2000/svg">
<path fill="#000000" stroke="#000000" d="M13.00551 14.99534 L13.90441 15.72794 L14.15658 16.05809 L14.34987 16.45422 L14.49565 16.89603 L14.59530 17.37542 L14.64818 17.88669 L13.95731 18.46570 L13.46315 18.32426 L13.00857 18.14235 L12.59904 17.92158 L12.24280 17.66202 L11.96182 17.35602 L11.39763 16.34289 L9.73645 16.94696 L9.95481 18.08584 L9.93601 18.50085 L9.82971 18.92861 L9.65765 19.36086 L9.42609 19.79228 L9.13821 20.21810 L8.23679 20.21810 L7.94891 19.79228 L7.71735 19.36086 L7.54529 18.92861 L7.43899 18.50085 L7.42019 18.08584 L7.63855 16.94696 L5.97737 16.34289 L5.41318 17.35602 L5.13220 17.66202 L4.77596 17.92158 L4.36643 18.14235 L3.91185 18.32426 L3.41769 18.46570 L2.72682 17.88669 L2.77970 17.37542 L2.87935 16.89603 L3.02513 16.45422 L3.21842 16.05809 L3.47059 15.72794 L4.36949 14.99534 L3.48290 13.46157 L2.39942 13.87488 L1.98749 13.92862 L1.54775 13.89841 L1.09214 13.80423 L0.62700 13.65132 L0.15756 13.44198 L0.00063 12.55432 L0.36982 12.19670 L0.75434 11.89357 L1.15004 11.64888 L1.55276 11.46973 L1.95815 11.37897 L3.11766 11.39572 L3.42637 9.64585 L2.33113 9.26481 L1.98127 9.04081 L1.66417 8.73466 L1.37609 8.36934 L1.11851 7.95293 L0.89398 7.49057 L1.34519 6.71020 L1.85792 6.67413 L2.34731 6.68962 L2.80765 6.75703 L3.23117 6.87912 L3.59985 7.07058 L4.47648 7.82969 L5.82937 6.69490 L5.23437 5.69955 L5.10999 5.30318 L5.06346 4.86488 L5.07717 4.39984 L5.14708 3.91522 L5.27182 3.41658 L6.11879 3.10804 L6.53503 3.40961 L6.90027 3.73571 L7.20989 4.08296 L7.45619 4.44850 L7.61590 4.83200 L7.80054 5.97683 L9.57446 5.97683 L9.75910 4.83200 L9.91881 4.44850 L10.16511 4.08296 L10.47473 3.73571 L10.83997 3.40961 L11.25621 3.10804 L12.10318 3.41658 L12.22792 3.91522 L12.29783 4.39984 L12.31154 4.86488 L12.26501 5.30318 L12.14063 5.69955 L11.54563 6.69490 L12.89852 7.82969 L13.77515 7.07058 L14.14383 6.87912 L14.56735 6.75703 L15.02769 6.68962 L15.51708 6.67413 L16.02981 6.71020 L16.48102 7.49057 L16.25649 7.95293 L15.99891 8.36934 L15.71083 8.73466 L15.39373 9.04081 L15.04387 9.26481 L13.94863 9.64585 L14.25734 11.39572 L15.41685 11.37897 L15.82224 11.46973 L16.22496 11.64888 L16.62066 11.89357 L17.00518 12.19670 L17.37437 12.55432 L17.21744 13.44198 L16.74800 13.65132 L16.28286 13.80423 L15.82725 13.89841 L15.38751 13.92862 L14.97558 13.87488 L13.89210 13.46157 z"/>
<path stroke="#000000" d="M 0.00000 2.73425 L 17.37500 2.73425 L 17.37500 20.23425 L 0.00000 20.23425 z"/>
<path stroke="#000000" d="M 0.46875 22.63993 L 0.62500 22.71806 L 0.85938 22.95243 L 0.85938 21.31181"/>
<path stroke="#000000" d="M 2.89063 22.95243 L 2.10938 21.31181 M 1.79688 22.95243 z"/>
<path stroke="#000000" d="M 3.51563 21.46806 L 3.43750 21.38993 L 3.51563 21.31181 L 3.59375 21.38993 z"/>
<path stroke="#000000" d="M 4.29688 22.95243 L 5.15625 22.95243 L 4.68750 22.32743 L 4.92188 22.32743 L 5.07813 22.24931 L 5.15625 22.17118 L 5.23438 21.93681 L 5.23438 21.78056 L 5.15625 21.54618 L 5.00000 21.38993 L 4.76563 21.31181 L 4.53125 21.31181 L 4.29688 21.38993 L 4.21875 21.46806 L 4.14063 21.62431"/>
<path stroke="#000000" d="M 6.79688 22.95243 L 6.01563 21.31181 M 5.70313 22.95243 z"/>
<path stroke="#000000" d=""/>
<path stroke="#000000" d="M 8.51563 22.40556 L 9.37500 21.31181 M 9.37500 22.40556 L 8.51563 21.31181"/>
<path stroke="#000000" d=""/>
<path stroke="#000000" d="M 11.32813 22.63993 L 11.48438 22.71806 L 11.71875 22.95243 L 11.71875 21.31181"/>
<path stroke="#000000" d="M 13.75000 22.95243 L 12.96875 21.31181 M 12.65625 22.95243 z"/>
<path stroke="#000000" d="M 14.37500 21.46806 L 14.29688 21.38993 L 14.37500 21.31181 L 14.45313 21.38993 z"/>
<path stroke="#000000" d="M 15.78125 22.95243 L 15.00000 21.85868 L 16.17188 21.85868 M 15.78125 22.95243 L 15.78125 21.31181"/>
<path stroke="#000000" d="M 16.95313 22.95243 L 16.71875 22.87431 L 16.64063 22.71806 L 16.64063 22.56181 L 16.71875 22.40556 L 16.87500 22.32743 L 17.18750 22.24931 L 17.42188 22.17118 L 17.57813 22.01493 L 17.65625 21.85868 L 17.65625 21.62431 L 17.57813 21.46806 L 17.50000 21.38993 L 17.26563 21.31181 L 16.95313 21.31181 L 16.71875 21.38993 L 16.64063 21.46806 L 16.56250 21.62431 L 16.56250 21.85868 L 16.64063 22.01493 L 16.79688 22.17118 L 17.03125 22.24931 L 17.34375 22.32743 L 17.50000 22.40556 L 17.57813 22.56181 L 17.57813 22.71806 L 17.50000 22.87431 L 17.26563 22.95243 z"/>
</svg>