<?xml version="1.0" encoding="UTF-8"?>
<!-- Generated by jsxcad -->
<!DOCTYPE svg PUBLIC "-//W3C//DTD SVG 1.1 Tiny//EN" "http://www.w3.org/Graphics/SVG/1.1/DTD/svg11-tiny.dtd">
<svg baseProfile="tiny" height="34.94243mm" width="30.49206mm" viewBox="-0.00000 4.71940 30.49206 34.94243" version="1.1" stroke="black" stroke-width=".1" fill="none" xmlns="http://www.w3.org/2000/svg">
<path fill="#000000" stroke="#000000" d="M26.28808 23.97819 L27.01544 24.24772 L27.43530 24.49947 L27.82571 24.82534 L28.19286 25.20323 L28.53751 25.62562 L28.85925 26.08814 L28.38097 27.04821 L27.81798 27.06998 L27.27321 27.04929 L26.75041 26.98384 L26.25513 26.86849 L25.80128 26.68498 L25.14800 26.26672 L24.03118 27.74454 L24.61188 28.25883 L24.91231 28.64535 L25.15848 29.09033 L25.36416 29.57541 L25.53277 30.09384 L25.66551 30.64139 L24.87246 31.36358 L24.33968 31.18032 L23.83926 30.96406 L23.37549 30.71401 L22.95542 30.42739 L22.59863 30.09220 L22.14078 29.46603 L20.56443 30.44045 L20.91984 31.12994 L21.06016 31.59894 L21.12876 32.10283 L21.14509 32.62946 L21.11481 33.17378 L21.04055 33.73228 L20.04001 34.11880 L19.60956 33.75527 L19.22121 33.37267 L18.87926 32.97184 L18.59127 32.55270 L18.37984 32.11116 L18.17942 31.36180 L16.37363 31.69847 L16.45671 32.46971 L16.41859 32.95777 L16.30100 33.45253 L16.12646 33.94966 L15.90207 34.44650 L15.63154 34.94071 L14.55894 34.94071 L14.28840 34.44650 L14.06401 33.94966 L13.88948 33.45253 L13.77188 32.95777 L13.73377 32.46971 L13.81685 31.69847 L12.01106 31.36180 L11.81063 32.11116 L11.59920 32.55270 L11.31122 32.97184 L10.96927 33.37267 L10.58092 33.75527 L10.15047 34.11880 L9.14992 33.73228 L9.07566 33.17378 L9.04538 32.62946 L9.06172 32.10283 L9.13031 31.59894 L9.27063 31.12994 L9.62605 30.44045 L8.04970 29.46603 L7.59185 30.09220 L7.23505 30.42739 L6.81498 30.71401 L6.35122 30.96406 L5.85079 31.18032 L5.31801 31.36358 L4.52497 30.64139 L4.65770 30.09384 L4.82632 29.57541 L5.03199 29.09033 L5.27816 28.64535 L5.57860 28.25883 L6.15930 27.74454 L5.04247 26.26672 L4.38919 26.68498 L3.93534 26.86849 L3.44006 26.98384 L2.91726 27.04929 L2.37250 27.06998 L1.80950 27.04821 L1.33123 26.08814 L1.65296 25.62562 L1.99762 25.20323 L2.36476 24.82534 L2.75517 24.49947 L3.17503 24.24772 L3.90240 23.97819 L3.39717 22.20500 L2.63697 22.35930 L2.14748 22.36665 L1.64395 22.29549 L1.13276 22.16785 L0.61724 21.99055 L0.10005 21.76706 L0.00049 20.69909 L0.46746 20.38385 L0.94132 20.11431 L1.42011 19.89439 L1.90181 19.73137 L2.38422 19.64812 L3.15985 19.65925 L3.33064 17.81133 L2.56611 17.68012 L2.10713 17.50986 L1.66346 17.26132 L1.23310 16.95737 L0.81666 16.60554 L0.41538 16.21006 L0.70899 15.17842 L1.25839 15.05351 L1.79767 14.97370 L2.32359 14.94191 L2.83164 14.96424 L3.31149 15.06119 L4.03053 15.35221 L4.86122 13.68659 L4.19616 13.28733 L3.83003 12.96236 L3.50654 12.56998 L3.21551 12.13077 L2.95482 11.65198 L2.72406 11.13799 L3.37146 10.28279 L3.92879 10.36539 L4.46035 10.48636 L4.96206 10.64726 L5.42751 10.85212 L5.83965 11.11631 L6.40442 11.64805 L7.77065 10.40536 L7.29467 9.79287 L7.07060 9.35761 L6.91064 8.87488 L6.79788 8.36021 L6.72768 7.81960 L6.69812 7.25695 L7.61066 6.69327 L8.10055 6.97157 L8.55256 7.27634 L8.96230 7.60756 L9.32236 7.96669 L9.61127 8.36189 L9.94590 9.06170 L11.64973 8.40197 L11.42582 7.65929 L11.37326 7.17258 L11.39758 6.66462 L11.47742 6.14383 L11.60632 5.61413 L11.78105 5.07849 L12.83525 4.88065 L13.19230 5.31648 L13.50449 5.76341 L13.76772 6.21981 L13.97456 6.68439 L14.10204 7.15704 L14.16264 7.93037 L16.02783 7.93037 L16.08844 7.15704 L16.21592 6.68439 L16.42276 6.21981 L16.68599 5.76341 L16.99817 5.31648 L17.35522 4.88065 L18.40942 5.07849 L18.58415 5.61413 L18.71305 6.14383 L18.79289 6.66462 L18.81722 7.17258 L18.76465 7.65929 L18.54075 8.40197 L20.24457 9.06170 L20.57920 8.36189 L20.86812 7.96669 L21.22817 7.60756 L21.63792 7.27634 L22.08993 6.97157 L22.57981 6.69327 L23.49236 7.25695 L23.46280 7.81960 L23.39260 8.36021 L23.27983 8.87488 L23.11987 9.35761 L22.89581 9.79287 L22.41982 10.40536 L23.78605 11.64805 L24.35082 11.11631 L24.76296 10.85212 L25.22841 10.64726 L25.73012 10.48636 L26.26169 10.36539 L26.81902 10.28279 L27.46641 11.13799 L27.23566 11.65198 L26.97496 12.13077 L26.68394 12.56998 L26.36045 12.96236 L25.99432 13.28733 L25.32926 13.68659 L26.15995 15.35221 L26.87898 15.06119 L27.35884 14.96424 L27.86688 14.94191 L28.39280 14.97370 L28.93209 15.05351 L29.48148 15.17842 L29.77510 16.21006 L29.37381 16.60554 L28.95738 16.95737 L28.52701 17.26132 L28.08335 17.50986 L27.62436 17.68012 L26.85984 17.81133 L27.03063 19.65925 L27.80625 19.64812 L28.28867 19.73137 L28.77037 19.89439 L29.24915 20.11431 L29.72302 20.38385 L30.18999 20.69909 L30.09043 21.76706 L29.57323 21.99055 L29.05771 22.16785 L28.54653 22.29549 L28.04299 22.36665 L27.55350 22.35930 L26.79330 22.20500 z M6.09524 19.83051 L6.11280 20.39246 L6.16528 20.95113 L6.25402 21.51364 L6.37989 22.07612 L6.53308 22.60348 L6.72544 23.13904 L6.95438 23.66801 L7.21162 24.17201 L7.49447 24.65009 L7.80839 25.11273 L8.16039 25.56705 L8.52835 25.98486 L8.94089 26.39739 L9.35869 26.76535 L9.81302 27.11736 L10.27566 27.43128 L10.75374 27.71412 L11.25773 27.97137 L11.78670 28.20031 L12.32227 28.39267 L12.84963 28.54585 L13.41210 28.67172 L13.97462 28.76047 L14.53329 28.81295 L15.09524 28.83051 L15.65719 28.81295 L16.21586 28.76047 L16.77837 28.67172 L17.34085 28.54585 L17.86821 28.39267 L18.40377 28.20031 L18.93274 27.97137 L19.43674 27.71412 L19.91482 27.43128 L20.37746 27.11736 L20.83178 26.76535 L21.24959 26.39739 L21.66212 25.98486 L22.03008 25.56705 L22.38209 25.11273 L22.69601 24.65009 L22.97885 24.17201 L23.23610 23.66801 L23.46504 23.13904 L23.49847 23.04596 L23.53068 22.99018 L23.61837 22.77965 L23.66969 22.57212 L23.66994 22.56031 L23.81058 22.07612 L23.92352 21.57143 L24.27041 21.40441 L24.65440 21.90109 L24.81258 22.02184 L25.00682 22.11114 L25.22607 22.17388 L25.46564 22.21002 L25.72199 22.21860 L25.97494 21.90151 L25.90961 21.65348 L25.82113 21.42793 L25.71124 21.22810 L25.58101 21.05856 L25.42812 20.93118 L24.85853 20.66716 L25.04280 19.85925 L25.67054 19.86833 L25.86354 19.81983 L26.05441 19.72353 L26.24008 19.59112 L26.41760 19.42623 L26.58403 19.23106 L26.49359 18.83565 L26.25887 18.73223 L26.02732 18.66091 L25.80255 18.62238 L25.58880 18.61862 L25.39391 18.65885 L24.83252 18.93990 L24.31797 18.29455 L24.71697 17.80985 L24.79959 17.62881 L24.84352 17.41959 L24.85601 17.19188 L24.83804 16.95026 L24.78949 16.69841 L24.42415 16.52219 L24.19682 16.64097 L23.99654 16.77732 L23.82610 16.92885 L23.68972 17.09347 L23.67579 17.12084 L23.65740 17.05754 L23.46504 16.52197 L23.23610 15.99300 L22.97885 15.48901 L22.69601 15.01093 L22.38209 14.54829 L22.03008 14.09396 L21.66212 13.67616 L21.24959 13.26362 L20.83178 12.89566 L20.37746 12.54366 L19.91482 12.22974 L19.43674 11.94689 L18.93274 11.68965 L18.40377 11.46071 L17.86821 11.26835 L17.34085 11.11516 L16.77837 10.98929 L16.21586 10.90055 L15.65719 10.84807 L15.09524 10.83051 L14.53329 10.84807 L13.97462 10.90055 L13.41210 10.98929 L12.84963 11.11516 L12.32227 11.26835 L11.78670 11.46071 L11.25773 11.68965 L10.75374 11.94689 L10.27566 12.22974 L9.81302 12.54366 L9.35869 12.89566 L8.94089 13.26362 L8.52835 13.67616 L8.16039 14.09396 L7.80839 14.54829 L7.49447 15.01093 L7.21162 15.48901 L6.95438 15.99300 L6.72544 16.52197 L6.53308 17.05754 L6.37989 17.58490 L6.25402 18.14738 L6.16528 18.70989 L6.11280 19.26856 z"/>
<path fill="#000000" stroke="#000000" d="M6.11280 19.26856 L6.16528 18.70989 L6.25402 18.14738 L6.37989 17.58490 L6.53308 17.05754 L6.72544 16.52197 L6.95438 15.99300 L7.21162 15.48901 L7.49447 15.01093 L7.80839 14.54829 L8.16039 14.09396 L8.52835 13.67616 L8.94089 13.26362 L9.35869 12.89566 L9.81302 12.54366 L10.27566 12.22974 L10.75374 11.94689 L11.25773 11.68965 L11.78670 11.46071 L12.32227 11.26835 L12.84963 11.11516 L13.41210 10.98929 L13.97462 10.90055 L14.53329 10.84807 L15.09524 10.83051 L15.65719 10.84807 L16.21586 10.90055 L16.77837 10.98929 L17.34085 11.11516 L17.86821 11.26835 L18.40377 11.46071 L18.93274 11.68965 L19.43674 11.94689 L19.91482 12.22974 L20.37746 12.54366 L20.83178 12.89566 L21.24959 13.26362 L21.66212 13.67616 L22.03008 14.09396 L22.38209 14.54829 L22.69601 15.01093 L22.97885 15.48901 L23.23610 15.99300 L23.46504 16.52197 L23.65740 17.05754 L23.67579 17.12084 L23.59946 17.27083 L23.46852 17.88483 L22.63862 17.88483 L22.50768 17.27083 L22.41743 17.09347 L22.28104 16.92885 L22.11060 16.77732 L21.91033 16.64097 L21.68300 16.52219 L21.31766 16.69841 L21.26910 16.95026 L21.25113 17.19188 L21.26362 17.41959 L21.30755 17.62881 L21.39017 17.80985 L21.78918 18.29455 L21.27462 18.93990 L20.71324 18.65885 L20.51834 18.61862 L20.30460 18.62238 L20.07982 18.66091 L19.84827 18.73223 L19.61355 18.83565 L19.52311 19.23106 L19.68954 19.42623 L19.86706 19.59112 L20.05274 19.72353 L20.24360 19.81983 L20.43660 19.86833 L21.06434 19.85925 L21.24861 20.66716 L20.98556 20.78909 L21.04504 20.30021 L20.83382 20.13702 L20.61792 19.99799 L20.39864 19.88501 L20.17729 19.80165 L19.95531 19.75920 L19.47153 19.76630 L19.35916 18.84309 L19.83052 18.73394 L20.03584 18.63949 L20.23073 18.50547 L20.41651 18.34319 L20.59276 18.15642 L20.75866 17.94733 L20.57936 17.47570 L20.31646 17.42963 L20.06065 17.40712 L19.81398 17.40924 L19.57928 17.43854 L19.36306 17.50434 L18.93824 17.73589 L18.41448 16.97768 L18.78141 16.66231 L18.91948 16.48338 L19.02996 16.27424 L19.11925 16.04430 L19.18874 15.79708 L19.23871 15.53489 L18.86107 15.20026 L18.60680 15.28142 L18.36974 15.38015 L18.15221 15.49646 L17.95788 15.63130 L17.79687 15.78990 L17.52795 16.19211 L16.70639 15.76108 L16.88450 15.31123 L16.92349 15.08861 L16.92400 14.85209 L16.89607 14.60700 L16.84259 14.35583 L16.76485 14.10049 L16.27490 13.97994 L16.08757 14.17007 L15.92364 14.36774 L15.78519 14.57190 L15.67589 14.78165 L15.60714 14.99695 L15.55618 15.47809 L14.63429 15.47809 L14.58334 14.99695 L14.51458 14.78165 L14.40529 14.57190 L14.26683 14.36774 L14.10291 14.17007 L13.91558 13.97994 L13.42562 14.10049 L13.34789 14.35583 L13.29440 14.60700 L13.26648 14.85209 L13.26699 15.08861 L13.30597 15.31123 L13.48408 15.76108 L12.66253 16.19211 L12.39360 15.78990 L12.23259 15.63130 L12.03827 15.49646 L11.82073 15.38015 L11.58367 15.28142 L11.32940 15.20026 L10.95176 15.53489 L11.00173 15.79708 L11.07122 16.04430 L11.16052 16.27424 L11.27099 16.48338 L11.40906 16.66231 L11.77599 16.97768 L11.25224 17.73589 L10.82741 17.50434 L10.61120 17.43854 L10.37650 17.40924 L10.12983 17.40712 L9.87402 17.42963 L9.61112 17.47570 L9.43181 17.94733 L9.59772 18.15642 L9.77396 18.34319 L9.95975 18.50547 L10.15463 18.63949 L10.35995 18.73394 L10.83131 18.84309 L10.71895 19.76630 L10.23517 19.75920 L10.01318 19.80165 L9.79184 19.88501 L9.57255 19.99799 L9.35665 20.13702 L9.14544 20.30021 L9.20637 20.80108 L9.45055 20.90887 L9.69349 20.99209 L9.93347 21.04919 L10.16835 21.07705 L10.39403 21.06503 L10.86200 20.94214 L11.18812 21.80293 L10.75620 22.02098 L10.57921 22.16152 L10.42176 22.33802 L10.27986 22.53980 L10.15305 22.76310 L10.04159 23.00562 L10.32783 23.42113 L10.59415 23.40340 L10.84798 23.36448 L11.08708 23.30379 L11.30810 23.21956 L11.50248 23.10426 L11.86011 22.77838 L12.55942 23.39781 L12.27910 23.79217 L12.18810 23.99904 L12.13117 24.22861 L12.09979 24.47328 L12.09179 24.72996 L12.10633 24.99647 L12.55336 25.23047 L12.78065 25.09055 L12.98701 24.93771 L13.17019 24.77249 L13.32639 24.59489 L13.44454 24.40222 L13.60885 23.94715 L14.50298 24.16701 L14.43751 24.64640 L14.45284 24.87188 L14.50885 25.10167 L14.59452 25.33300 L14.70647 25.56411 L14.84296 25.79348 L15.34752 25.79348 L15.48401 25.56411 L15.59595 25.33300 L15.68162 25.10167 L15.73764 24.87188 L15.75297 24.64640 L15.68749 24.16701 L16.58162 23.94715 L16.74594 24.40222 L16.86409 24.59489 L17.02028 24.77249 L17.20346 24.93771 L17.40982 25.09055 L17.63712 25.23047 L18.08415 24.99647 L18.09869 24.72996 L18.09069 24.47328 L18.05931 24.22861 L18.00237 23.99904 L17.91138 23.79217 L17.63105 23.39781 L18.33037 22.77838 L18.68800 23.10426 L18.88238 23.21956 L19.10340 23.30379 L19.34249 23.36448 L19.59632 23.40340 L19.86264 23.42113 L20.14889 23.00562 L20.03743 22.76310 L19.91062 22.53980 L19.76872 22.33802 L19.61127 22.16152 L19.43427 22.02098 L19.00236 21.80293 L19.32848 20.94214 L19.79644 21.06503 L20.02213 21.07705 L20.25701 21.04919 L20.49698 20.99209 L20.69097 20.92564 L20.67902 20.93118 L20.52613 21.05856 L20.39590 21.22810 L20.28601 21.42793 L20.19754 21.65348 L20.13220 21.90151 L20.38515 22.21860 L20.64150 22.21002 L20.88107 22.17388 L21.10033 22.11114 L21.29457 22.02184 L21.45274 21.90109 L21.83674 21.40441 L22.58202 21.76325 L22.43322 22.37317 L22.43745 22.57212 L22.48878 22.77965 L22.57646 22.99018 L22.69761 23.20000 L22.85076 23.40575 L23.25638 23.40575 L23.40953 23.20000 L23.49847 23.04596 L23.46504 23.13904 L23.23610 23.66801 L22.97885 24.17201 L22.69601 24.65009 L22.38209 25.11273 L22.03008 25.56705 L21.66212 25.98486 L21.24959 26.39739 L20.83178 26.76535 L20.37746 27.11736 L19.91482 27.43128 L19.43674 27.71412 L18.93274 27.97137 L18.40377 28.20031 L17.86821 28.39267 L17.34085 28.54585 L16.77837 28.67172 L16.21586 28.76047 L15.65719 28.81295 L15.09524 28.83051 L14.53329 28.81295 L13.97462 28.76047 L13.41210 28.67172 L12.84963 28.54585 L12.32227 28.39267 L11.78670 28.20031 L11.25773 27.97137 L10.75374 27.71412 L10.27566 27.43128 L9.81302 27.11736 L9.35869 26.76535 L8.94089 26.39739 L8.52835 25.98486 L8.16039 25.56705 L7.80839 25.11273 L7.49447 24.65009 L7.21162 24.17201 L6.95438 23.66801 L6.72544 23.13904 L6.53308 22.60348 L6.37989 22.07612 L6.25402 21.51364 L6.16528 20.95113 L6.11280 20.39246 L6.09524 19.83051 z"/>
<path fill="#000000" stroke="#000000" d="M23.52512 21.76325 L23.92352 21.57143 L23.81058 22.07612 L23.66994 22.56031 L23.67393 22.37317 z"/>
<path fill="#000000" stroke="#000000" d="M19.61355 18.83565 L19.84827 18.73223 L20.07982 18.66091 L20.30460 18.62238 L20.51834 18.61862 L20.71324 18.65885 L21.27462 18.93990 L21.78918 18.29455 L21.39017 17.80985 L21.30755 17.62881 L21.26362 17.41959 L21.25113 17.19188 L21.26910 16.95026 L21.31766 16.69841 L21.68300 16.52219 L21.91033 16.64097 L22.11060 16.77732 L22.28104 16.92885 L22.41743 17.09347 L22.50768 17.27083 L22.63862 17.88483 L23.46852 17.88483 L23.59946 17.27083 L23.68972 17.09347 L23.82610 16.92885 L23.99654 16.77732 L24.19682 16.64097 L24.42415 16.52219 L24.78949 16.69841 L24.83804 16.95026 L24.85601 17.19188 L24.84352 17.41959 L24.79959 17.62881 L24.71697 17.80985 L24.31797 18.29455 L24.83252 18.93990 L25.39391 18.65885 L25.58880 18.61862 L25.80255 18.62238 L26.02732 18.66091 L26.25887 18.73223 L26.49359 18.83565 L26.58403 19.23106 L26.41760 19.42623 L26.24008 19.59112 L26.05441 19.72353 L25.86354 19.81983 L25.67054 19.86833 L25.04280 19.85925 L24.85853 20.66716 L25.42812 20.93118 L25.58101 21.05856 L25.71124 21.22810 L25.82113 21.42793 L25.90961 21.65348 L25.97494 21.90151 L25.72199 22.21860 L25.46564 22.21002 L25.22607 22.17388 L25.00682 22.11114 L24.81258 22.02184 L24.65440 21.90109 L24.27041 21.40441 L23.52512 21.76325 L23.67393 22.37317 L23.66969 22.57212 L23.61837 22.77965 L23.53068 22.99018 L23.40953 23.20000 L23.25638 23.40575 L22.85076 23.40575 L22.69761 23.20000 L22.57646 22.99018 L22.48878 22.77965 L22.43745 22.57212 L22.43322 22.37317 L22.58202 21.76325 L21.83674 21.40441 L21.45274 21.90109 L21.29457 22.02184 L21.10033 22.11114 L20.88107 22.17388 L20.64150 22.21002 L20.38515 22.21860 L20.13220 21.90151 L20.19754 21.65348 L20.28601 21.42793 L20.39590 21.22810 L20.52613 21.05856 L20.67902 20.93118 L20.69097 20.92564 L20.73992 20.90887 L20.98410 20.80108 L20.98556 20.78909 L21.24861 20.66716 L21.06434 19.85925 L20.43660 19.86833 L20.24360 19.81983 L20.05274 19.72353 L19.86706 19.59112 L19.68954 19.42623 L19.52311 19.23106 z"/>
<path fill="#000000" stroke="#000000" d="M19.00236 21.80293 L19.43427 22.02098 L19.61127 22.16152 L19.76872 22.33802 L19.91062 22.53980 L20.03743 22.76310 L20.14889 23.00562 L19.86264 23.42113 L19.59632 23.40340 L19.34249 23.36448 L19.10340 23.30379 L18.88238 23.21956 L18.68800 23.10426 L18.33037 22.77838 L17.63105 23.39781 L17.91138 23.79217 L18.00237 23.99904 L18.05931 24.22861 L18.09069 24.47328 L18.09869 24.72996 L18.08415 24.99647 L17.63712 25.23047 L17.40982 25.09055 L17.20346 24.93771 L17.02028 24.77249 L16.86409 24.59489 L16.74594 24.40222 L16.58162 23.94715 L15.68749 24.16701 L15.75297 24.64640 L15.73764 24.87188 L15.68162 25.10167 L15.59595 25.33300 L15.48401 25.56411 L15.34752 25.79348 L14.84296 25.79348 L14.70647 25.56411 L14.59452 25.33300 L14.50885 25.10167 L14.45284 24.87188 L14.43751 24.64640 L14.50298 24.16701 L13.60885 23.94715 L13.44454 24.40222 L13.32639 24.59489 L13.17019 24.77249 L12.98701 24.93771 L12.78065 25.09055 L12.55336 25.23047 L12.10633 24.99647 L12.09179 24.72996 L12.09979 24.47328 L12.13117 24.22861 L12.18810 23.99904 L12.27910 23.79217 L12.55942 23.39781 L11.86011 22.77838 L11.50248 23.10426 L11.30810 23.21956 L11.08708 23.30379 L10.84798 23.36448 L10.59415 23.40340 L10.32783 23.42113 L10.04159 23.00562 L10.15305 22.76310 L10.27986 22.53980 L10.42176 22.33802 L10.57921 22.16152 L10.75620 22.02098 L11.18812 21.80293 L10.86200 20.94214 L10.39403 21.06503 L10.16835 21.07705 L9.93347 21.04919 L9.69349 20.99209 L9.45055 20.90887 L9.20637 20.80108 L9.14544 20.30021 L9.35665 20.13702 L9.57255 19.99799 L9.79184 19.88501 L10.01318 19.80165 L10.23517 19.75920 L10.71895 19.76630 L10.83131 18.84309 L10.35995 18.73394 L10.15463 18.63949 L9.95975 18.50547 L9.77396 18.34319 L9.59772 18.15642 L9.43181 17.94733 L9.61112 17.47570 L9.87402 17.42963 L10.12983 17.40712 L10.37650 17.40924 L10.61120 17.43854 L10.82741 17.50434 L11.25224 17.73589 L11.77599 16.97768 L11.40906 16.66231 L11.27099 16.48338 L11.16052 16.27424 L11.07122 16.04430 L11.00173 15.79708 L10.95176 15.53489 L11.32940 15.20026 L11.58367 15.28142 L11.82073 15.38015 L12.03827 15.49646 L12.23259 15.63130 L12.39360 15.78990 L12.66253 16.19211 L13.48408 15.76108 L13.30597 15.31123 L13.26699 15.08861 L13.26648 14.85209 L13.29440 14.60700 L13.34789 14.35583 L13.42562 14.10049 L13.91558 13.97994 L14.10291 14.17007 L14.26683 14.36774 L14.40529 14.57190 L14.51458 14.78165 L14.58334 14.99695 L14.63429 15.47809 L15.55618 15.47809 L15.60714 14.99695 L15.67589 14.78165 L15.78519 14.57190 L15.92364 14.36774 L16.08757 14.17007 L16.27490 13.97994 L16.76485 14.10049 L16.84259 14.35583 L16.89607 14.60700 L16.92400 14.85209 L16.92349 15.08861 L16.88450 15.31123 L16.70639 15.76108 L17.52795 16.19211 L17.79687 15.78990 L17.95788 15.63130 L18.15221 15.49646 L18.36974 15.38015 L18.60680 15.28142 L18.86107 15.20026 L19.23871 15.53489 L19.18874 15.79708 L19.11925 16.04430 L19.02996 16.27424 L18.91948 16.48338 L18.78141 16.66231 L18.41448 16.97768 L18.93824 17.73589 L19.36306 17.50434 L19.57928 17.43854 L19.81398 17.40924 L20.06065 17.40712 L20.31646 17.42963 L20.57936 17.47570 L20.75866 17.94733 L20.59276 18.15642 L20.41651 18.34319 L20.23073 18.50547 L20.03584 18.63949 L19.83052 18.73394 L19.35916 18.84309 L19.47153 19.76630 L19.95531 19.75920 L20.17729 19.80165 L20.39864 19.88501 L20.61792 19.99799 L20.83382 20.13702 L21.04504 20.30021 L20.98410 20.80108 L20.73992 20.90887 L20.49698 20.99209 L20.25701 21.04919 L20.02213 21.07705 L19.79644 21.06503 L19.32848 20.94214 z"/>
<path stroke="#000000" d="M 0.00000 4.71940 L 30.20000 4.71940 L 30.20000 34.96940 L 0.00000 34.96940 z"/>
<path stroke="#000000" d="M 0.67460 39.66183 L 2.15873 39.66183 L 1.34921 38.58246 L 1.75397 38.58246 L 2.02381 38.44754 L 2.15873 38.31262 L 2.29365 37.90786 L 2.29365 37.63802 L 2.15873 37.23325 L 1.88889 36.96341 L 1.48413 36.82849 L 1.07937 36.82849 L 0.67460 36.96341 L 0.53968 37.09833 L 0.40476 37.36817"/>
<path stroke="#000000" d="M 3.91270 39.66183 L 3.50794 39.52691 L 3.23810 39.12214 L 3.10317 38.44754 L 3.10317 38.04278 L 3.23810 37.36817 L 3.50794 36.96341 L 3.91270 36.82849 L 4.18254 36.82849 L 4.58730 36.96341 L 4.85714 37.36817 L 4.99206 38.04278 L 4.99206 38.44754 L 4.85714 39.12214 L 4.58730 39.52691 L 4.18254 39.66183 z"/>
<path stroke="#000000" d="M 6.07143 37.09833 L 5.93651 36.96341 L 6.07143 36.82849 L 6.20635 36.96341 z"/>
<path stroke="#000000" d="M 7.55556 39.12214 L 7.82540 39.25706 L 8.23016 39.66183 L 8.23016 36.82849"/>
<path stroke="#000000" d="M 10.52381 39.66183 L 10.11905 39.52691 L 9.98413 39.25706 L 9.98413 38.98722 L 10.11905 38.71738 L 10.38889 38.58246 L 10.92857 38.44754 L 11.33333 38.31262 L 11.60317 38.04278 L 11.73810 37.77294 L 11.73810 37.36817 L 11.60317 37.09833 L 11.46825 36.96341 L 11.06349 36.82849 L 10.52381 36.82849 L 10.11905 36.96341 L 9.98413 37.09833 L 9.84921 37.36817 L 9.84921 37.77294 L 9.98413 38.04278 L 10.25397 38.31262 L 10.65873 38.44754 L 11.19841 38.58246 L 11.46825 38.71738 L 11.60317 38.98722 L 11.60317 39.25706 L 11.46825 39.52691 L 11.06349 39.66183 z"/>
<path stroke="#000000" d=""/>
<path stroke="#000000" d="M 14.70635 38.71738 L 16.19048 36.82849 M 16.19048 38.71738 L 14.70635 36.82849"/>
<path stroke="#000000" d=""/>
<path stroke="#000000" d="M 19.42857 39.66183 L 20.91270 39.66183 L 20.10317 38.58246 L 20.50794 38.58246 L 20.77778 38.44754 L 20.91270 38.31262 L 21.04762 37.90786 L 21.04762 37.63802 L 20.91270 37.23325 L 20.64286 36.96341 L 20.23810 36.82849 L 19.83333 36.82849 L 19.42857 36.96341 L 19.29365 37.09833 L 19.15873 37.36817"/>
<path stroke="#000000" d="M 22.66667 39.66183 L 22.26190 39.52691 L 21.99206 39.12214 L 21.85714 38.44754 L 21.85714 38.04278 L 21.99206 37.36817 L 22.26190 36.96341 L 22.66667 36.82849 L 22.93651 36.82849 L 23.34127 36.96341 L 23.61111 37.36817 L 23.74603 38.04278 L 23.74603 38.44754 L 23.61111 39.12214 L 23.34127 39.52691 L 22.93651 39.66183 z"/>
<path stroke="#000000" d="M 24.82540 37.09833 L 24.69048 36.96341 L 24.82540 36.82849 L 24.96032 36.96341 z"/>
<path stroke="#000000" d="M 26.03968 38.98722 L 26.03968 39.12214 L 26.17460 39.39198 L 26.30952 39.52691 L 26.57937 39.66183 L 27.11905 39.66183 L 27.38889 39.52691 L 27.52381 39.39198 L 27.65873 39.12214 L 27.65873 38.85230 L 27.52381 38.58246 L 27.25397 38.17770 L 25.90476 36.82849 L 27.79365 36.82849"/>
<path stroke="#000000" d="M 28.73810 38.98722 L 28.73810 39.12214 L 28.87302 39.39198 L 29.00794 39.52691 L 29.27778 39.66183 L 29.81746 39.66183 L 30.08730 39.52691 L 30.22222 39.39198 L 30.35714 39.12214 L 30.35714 38.85230 L 30.22222 38.58246 L 29.95238 38.17770 L 28.60317 36.82849 L 30.49206 36.82849"/>
</svg>