<?xml version="1.0" encoding="UTF-8"?>
<!-- Generated by jsxcad -->
<!DOCTYPE svg PUBLIC "-//W3C//DTD SVG 1.1 Tiny//EN" "http://www.w3.org/Graphics/SVG/1.1/DTD/svg11-tiny.dtd">
<svg baseProfile="tiny" height="10.00000mm" width="10.00000mm" viewBox="-0.00000 -0.00000 10.00000 10.00000" version="1.1" stroke="black" stroke-width=".1" fill="none" xmlns="http://www.w3.org/2000/svg">
<path fill="#000000" stroke="#000000" d="M9.99024 5.31220 L9.96109 5.62257 L9.91179 5.93507 L9.84186 6.24756 L9.75676 6.54054 L9.64989 6.83807 L9.52270 7.13195 L9.37979 7.41194 L9.22265 7.67754 L9.04825 7.93457 L8.85269 8.18697 L8.64827 8.41908 L8.41908 8.64827 L8.18697 8.85269 L7.93457 9.04825 L7.67754 9.22265 L7.41194 9.37979 L7.13195 9.52270 L6.83807 9.64989 L6.54054 9.75676 L6.24756 9.84186 L5.93507 9.91179 L5.62257 9.96109 L5.31220 9.99024 L5.00000 10.00000 L4.68780 9.99024 L4.37743 9.96109 L4.06493 9.91179 L3.75244 9.84186 L3.45946 9.75676 L3.16193 9.64989 L2.86805 9.52270 L2.58806 9.37979 L2.32246 9.22265 L2.06543 9.04825 L1.81303 8.85269 L1.58092 8.64827 L1.35173 8.41908 L1.14731 8.18697 L0.95175 7.93457 L0.77735 7.67754 L0.62021 7.41194 L0.47730 7.13195 L0.35011 6.83807 L0.24324 6.54054 L0.15814 6.24756 L0.08821 5.93507 L0.03891 5.62257 L0.00976 5.31220 L0.00000 5.00000 L0.00976 4.68780 L0.03891 4.37743 L0.08821 4.06493 L0.15814 3.75244 L0.24324 3.45946 L0.35011 3.16193 L0.47730 2.86805 L0.62021 2.58806 L0.77735 2.32246 L0.95175 2.06543 L1.14731 1.81303 L1.35173 1.58092 L1.58092 1.35173 L1.81303 1.14731 L2.06543 0.95175 L2.32246 0.77735 L2.58806 0.62021 L2.86805 0.47730 L3.16193 0.35011 L3.45946 0.24324 L3.75244 0.15814 L4.06493 0.08821 L4.37743 0.03891 L4.68780 0.00976 L5.00000 0.00000 L5.31220 0.00976 L5.62257 0.03891 L5.93507 0.08821 L6.24756 0.15814 L6.54054 0.24324 L6.83807 0.35011 L7.13195 0.47730 L7.41194 0.62021 L7.67754 0.77735 L7.93457 0.95175 L8.18697 1.14731 L8.41908 1.35173 L8.64827 1.58092 L8.85269 1.81303 L9.04825 2.06543 L9.22265 2.32246 L9.37979 2.58806 L9.52270 2.86805 L9.64989 3.16193 L9.75676 3.45946 L9.84186 3.75244 L9.91179 4.06493 L9.96109 4.37743 L9.99024 4.68780 L10.00000 5.00000 z"/>
</svg>