<?xml version="1.0" encoding="UTF-8"?>
<!-- Generated by jsxcad -->
<!DOCTYPE svg PUBLIC "-//W3C//DTD SVG 1.1 Tiny//EN" "http://www.w3.org/Graphics/SVG/1.1/DTD/svg11-tiny.dtd">
<svg baseProfile="tiny" height="13.35298mm" width="12.90504mm" viewBox="-0.00091 0.00093 12.90504 13.35298" version="1.1" stroke="black" stroke-width=".1" fill="none" xmlns="http://www.w3.org/2000/svg">
<path fill="#000000" stroke="#000000" d="M12.70247 9.04583 L12.35282 9.14023 L12.01154 9.19776 L11.68212 9.21712 L11.36907 9.19508 L11.08197 9.11865 L10.39363 8.75574 L9.64599 9.78466 L10.20378 10.32723 L10.36515 10.57668 L10.48282 10.86761 L10.56616 11.18690 L10.61687 11.52925 L10.63509 11.89097 L10.10518 12.27511 L9.76707 12.14527 L9.45748 11.99058 L9.17995 11.81206 L8.94006 11.60972 L8.75318 11.37876 L8.41104 10.67987 L7.21426 11.06801 L7.34743 11.83468 L7.33168 12.13136 L7.25620 12.43598 L7.13628 12.74340 L6.97641 13.05035 L6.77886 13.35391 L6.12436 13.35391 L5.92682 13.05035 L5.76694 12.74340 L5.64702 12.43598 L5.57154 12.13136 L5.55580 11.83468 L5.68897 11.06801 L4.49219 10.67987 L4.15004 11.37876 L3.96317 11.60972 L3.72327 11.81206 L3.44575 11.99058 L3.13615 12.14527 L2.79805 12.27511 L2.26813 11.89097 L2.28635 11.52925 L2.33707 11.18690 L2.42040 10.86761 L2.53808 10.57668 L2.69945 10.32723 L3.25724 9.78466 L2.50959 8.75574 L1.82125 9.11865 L1.53416 9.19508 L1.22110 9.21712 L0.89168 9.19776 L0.55041 9.14023 L0.20075 9.04583 L-0.00091 8.42317 L0.22702 8.14171 L0.46978 7.89504 L0.72530 7.68623 L0.99184 7.52057 L1.26924 7.41418 L2.03964 7.30465 L2.03964 6.05019 L1.26924 5.94066 L0.99184 5.83427 L0.72530 5.66861 L0.46978 5.45980 L0.22702 5.21313 L-0.00091 4.93167 L0.20075 4.30901 L0.55041 4.21460 L0.89168 4.15708 L1.22110 4.13771 L1.53416 4.15976 L1.82125 4.23619 L2.50959 4.59910 L3.25724 3.57018 L2.69945 3.02761 L2.53808 2.77816 L2.42040 2.48723 L2.33707 2.16794 L2.28635 1.82558 L2.26813 1.46387 L2.79805 1.07973 L3.13615 1.20957 L3.44575 1.36426 L3.72327 1.54278 L3.96317 1.74511 L4.15004 1.97608 L4.49219 2.67497 L5.68897 2.28682 L5.55580 1.52016 L5.57154 1.22348 L5.64702 0.91886 L5.76694 0.61144 L5.92682 0.30449 L6.12436 0.00093 L6.77886 0.00093 L6.97641 0.30449 L7.13628 0.61144 L7.25620 0.91886 L7.33168 1.22348 L7.34743 1.52016 L7.21426 2.28682 L8.41104 2.67497 L8.75318 1.97608 L8.94006 1.74511 L9.17995 1.54278 L9.45748 1.36426 L9.76707 1.20957 L10.10518 1.07973 L10.63509 1.46387 L10.61687 1.82558 L10.56616 2.16794 L10.48282 2.48723 L10.36515 2.77816 L10.20378 3.02761 L9.64599 3.57018 L10.39363 4.59910 L11.08197 4.23619 L11.36907 4.15976 L11.68212 4.13771 L12.01154 4.15708 L12.35282 4.21460 L12.70247 4.30901 L12.90413 4.93167 L12.67620 5.21313 L12.43344 5.45980 L12.17792 5.66861 L11.91138 5.83427 L11.63399 5.94066 L10.86359 6.05019 L10.86359 7.30465 L11.63399 7.41418 L11.91138 7.52057 L12.17792 7.68623 L12.43344 7.89504 L12.67620 8.14171 L12.90413 8.42317 z M9.58205 6.67742 L9.57594 6.48196 L9.55769 6.28764 L9.52682 6.09198 L9.48304 5.89634 L9.42976 5.71291 L9.36285 5.52662 L9.28322 5.34263 L9.19374 5.16733 L9.09536 5.00104 L8.98617 4.84013 L8.86373 4.68210 L8.73575 4.53678 L8.59226 4.39329 L8.44693 4.26530 L8.28891 4.14286 L8.12799 4.03367 L7.96170 3.93529 L7.78640 3.84582 L7.60241 3.76618 L7.41613 3.69928 L7.23269 3.64599 L7.03705 3.60221 L6.84139 3.57135 L6.64707 3.55309 L6.45161 3.54698 L6.25615 3.55309 L6.06183 3.57135 L5.86618 3.60221 L5.67053 3.64599 L5.48710 3.69928 L5.30082 3.76618 L5.11683 3.84582 L4.94153 3.93529 L4.77524 4.03367 L4.61432 4.14286 L4.45629 4.26530 L4.31097 4.39329 L4.16748 4.53678 L4.03949 4.68210 L3.91706 4.84013 L3.80787 5.00104 L3.70949 5.16733 L3.62001 5.34263 L3.54038 5.52662 L3.47347 5.71291 L3.42019 5.89634 L3.37641 6.09198 L3.34554 6.28764 L3.32729 6.48196 L3.32118 6.67742 L3.32729 6.87288 L3.34554 7.06720 L3.37641 7.26286 L3.42019 7.45850 L3.47347 7.64193 L3.54038 7.82821 L3.62001 8.01220 L3.70949 8.18751 L3.80787 8.35379 L3.91706 8.51471 L4.03949 8.67274 L4.16748 8.81806 L4.31097 8.96155 L4.45629 9.08954 L4.61432 9.21197 L4.77524 9.32116 L4.94153 9.41955 L5.11683 9.50902 L5.30082 9.58866 L5.48710 9.65556 L5.67053 9.70884 L5.86618 9.75262 L6.06183 9.78349 L6.25615 9.80175 L6.45161 9.80785 L6.64707 9.80175 L6.84139 9.78349 L7.03705 9.75262 L7.23269 9.70884 L7.41613 9.65556 L7.60241 9.58866 L7.78640 9.50902 L7.96170 9.41955 L8.12799 9.32116 L8.28891 9.21197 L8.44693 9.08954 L8.59226 8.96155 L8.73575 8.81806 L8.86373 8.67274 L8.98617 8.51471 L9.09536 8.35379 L9.19374 8.18751 L9.28322 8.01220 L9.36285 7.82821 L9.42976 7.64193 L9.48304 7.45850 L9.52682 7.26286 L9.55769 7.06720 L9.57594 6.87288 z"/>
<path fill="#000000" stroke="#000000" d="M9.57594 6.87288 L9.55769 7.06720 L9.52682 7.26286 L9.48304 7.45850 L9.42976 7.64193 L9.36285 7.82821 L9.28322 8.01220 L9.19374 8.18751 L9.09536 8.35379 L8.98617 8.51471 L8.86373 8.67274 L8.73575 8.81806 L8.59226 8.96155 L8.44693 9.08954 L8.28891 9.21197 L8.12799 9.32116 L7.96170 9.41955 L7.78640 9.50902 L7.60241 9.58866 L7.41613 9.65556 L7.23269 9.70884 L7.03705 9.75262 L6.84139 9.78349 L6.64707 9.80175 L6.45161 9.80785 L6.25615 9.80175 L6.06183 9.78349 L5.86618 9.75262 L5.67053 9.70884 L5.48710 9.65556 L5.30082 9.58866 L5.11683 9.50902 L4.94153 9.41955 L4.77524 9.32116 L4.61432 9.21197 L4.45629 9.08954 L4.31097 8.96155 L4.16748 8.81806 L4.03949 8.67274 L3.91706 8.51471 L3.80787 8.35379 L3.70949 8.18751 L3.62001 8.01220 L3.54038 7.82821 L3.47347 7.64193 L3.42019 7.45850 L3.37641 7.26286 L3.34554 7.06720 L3.32729 6.87288 L3.32118 6.67742 L3.32729 6.48196 L3.34554 6.28764 L3.37641 6.09198 L3.42019 5.89634 L3.47347 5.71291 L3.54038 5.52662 L3.62001 5.34263 L3.70949 5.16733 L3.80787 5.00104 L3.91706 4.84013 L4.03949 4.68210 L4.16748 4.53678 L4.31097 4.39329 L4.45629 4.26530 L4.61432 4.14286 L4.77524 4.03367 L4.94153 3.93529 L5.11683 3.84582 L5.30082 3.76618 L5.48710 3.69928 L5.67053 3.64599 L5.86618 3.60221 L6.06183 3.57135 L6.25615 3.55309 L6.45161 3.54698 L6.64707 3.55309 L6.84139 3.57135 L7.03705 3.60221 L7.23269 3.64599 L7.41613 3.69928 L7.60241 3.76618 L7.78640 3.84582 L7.96170 3.93529 L8.12799 4.03367 L8.28891 4.14286 L8.44693 4.26530 L8.59226 4.39329 L8.73575 4.53678 L8.86373 4.68210 L8.98617 4.84013 L9.09536 5.00104 L9.19374 5.16733 L9.28322 5.34263 L9.36285 5.52662 L9.42976 5.71291 L9.48304 5.89634 L9.52682 6.09198 L9.55769 6.28764 L9.57594 6.48196 L9.58205 6.67742 z"/>
</svg>